<?xml version="1.0" encoding="UTF-8" standalone="no"?>
<!DOCTYPE svg PUBLIC "-//W3C//DTD SVG 1.1//EN"
 "http://www.w3.org/Graphics/SVG/1.1/DTD/svg11.dtd">
<!-- Generated by graphviz version 2.42.4 (0)
 -->
<!-- Title: G Pages: 1 -->
<svg width="2260pt" height="1091pt"
 viewBox="0.00 0.00 2260.40 1091.40" xmlns="http://www.w3.org/2000/svg" xmlns:xlink="http://www.w3.org/1999/xlink">
<g id="graph0" class="graph" transform="scale(1 1) rotate(0) translate(25.2 1066.2)">
<title>G</title>
<polygon fill="white" stroke="transparent" points="-25.2,25.2 -25.2,-1066.2 2235.2,-1066.2 2235.2,25.2 -25.2,25.2"/>
<text text-anchor="middle" x="1105" y="-1019.4" font-family="Arial" font-size="22.00">Adaptive SQL Execution Gateway — Top&#45;Level Architecture</text>
<g id="clust1" class="cluster">
<title>cluster_clients</title>
<path fill="white" stroke="#cbd5e1" d="M285.5,-462C285.5,-462 488.5,-462 488.5,-462 494.5,-462 500.5,-468 500.5,-474 500.5,-474 500.5,-654 500.5,-654 500.5,-660 494.5,-666 488.5,-666 488.5,-666 285.5,-666 285.5,-666 279.5,-666 273.5,-660 273.5,-654 273.5,-654 273.5,-474 273.5,-474 273.5,-468 279.5,-462 285.5,-462"/>
<text text-anchor="middle" x="387" y="-644.4" font-family="Arial" font-size="22.00">Clients / User Actions</text>
</g>
<g id="clust2" class="cluster">
<title>cluster_api</title>
<path fill="white" stroke="#cbd5e1" d="M563,-299C563,-299 768,-299 768,-299 774,-299 780,-305 780,-311 780,-311 780,-804 780,-804 780,-810 774,-816 768,-816 768,-816 563,-816 563,-816 557,-816 551,-810 551,-804 551,-804 551,-311 551,-311 551,-305 557,-299 563,-299"/>
<text text-anchor="middle" x="665.5" y="-794.4" font-family="Arial" font-size="22.00">REST API Layer (/rjp)</text>
</g>
<g id="clust3" class="cluster">
<title>cluster_core</title>
<path fill="white" stroke="#cbd5e1" d="M987.5,-519C987.5,-519 2190,-519 2190,-519 2196,-519 2202,-525 2202,-531 2202,-531 2202,-801 2202,-801 2202,-807 2196,-813 2190,-813 2190,-813 987.5,-813 987.5,-813 981.5,-813 975.5,-807 975.5,-801 975.5,-801 975.5,-531 975.5,-531 975.5,-525 981.5,-519 987.5,-519"/>
<text text-anchor="middle" x="1588.75" y="-791.4" font-family="Arial" font-size="22.00">Application Services</text>
</g>
<g id="clust4" class="cluster">
<title>cluster_catalog</title>
<path fill="white" stroke="#cbd5e1" d="M302.5,-824C302.5,-824 1175.5,-824 1175.5,-824 1181.5,-824 1187.5,-830 1187.5,-836 1187.5,-836 1187.5,-938 1187.5,-938 1187.5,-944 1181.5,-950 1175.5,-950 1175.5,-950 302.5,-950 302.5,-950 296.5,-950 290.5,-944 290.5,-938 290.5,-938 290.5,-836 290.5,-836 290.5,-830 296.5,-824 302.5,-824"/>
<text text-anchor="middle" x="739" y="-928.4" font-family="Arial" font-size="22.00">Catalog / Predefined Execution Descriptors</text>
</g>
<g id="clust5" class="cluster">
<title>cluster_parallel</title>
<path fill="white" stroke="#cbd5e1" d="M967,-8C967,-8 2184,-8 2184,-8 2190,-8 2196,-14 2196,-20 2196,-20 2196,-96 2196,-96 2196,-102 2190,-108 2184,-108 2184,-108 967,-108 967,-108 961,-108 955,-102 955,-96 955,-96 955,-20 955,-20 955,-14 961,-8 967,-8"/>
<text text-anchor="middle" x="1575.5" y="-86.4" font-family="Arial" font-size="22.00">Parallel Execution Model</text>
</g>
<g id="clust6" class="cluster">
<title>cluster_routing</title>
<path fill="white" stroke="#cbd5e1" d="M20,-131C20,-131 1189,-131 1189,-131 1195,-131 1201,-137 1201,-143 1201,-143 1201,-205 1201,-205 1201,-211 1195,-217 1189,-217 1189,-217 20,-217 20,-217 14,-217 8,-211 8,-205 8,-205 8,-143 8,-143 8,-137 14,-131 20,-131"/>
<text text-anchor="middle" x="604.5" y="-195.4" font-family="Arial" font-size="22.00">Dynamic Routing + JDBC Access</text>
</g>
<g id="clust7" class="cluster">
<title>cluster_dbs</title>
<path fill="white" stroke="#cbd5e1" d="M1371,-191C1371,-191 1801,-191 1801,-191 1807,-191 1813,-197 1813,-203 1813,-203 1813,-499 1813,-499 1813,-505 1807,-511 1801,-511 1801,-511 1371,-511 1371,-511 1365,-511 1359,-505 1359,-499 1359,-499 1359,-203 1359,-203 1359,-197 1365,-191 1371,-191"/>
<text text-anchor="middle" x="1586" y="-489.4" font-family="Arial" font-size="22.00">External JDBC Databases / Shards / Tenants</text>
</g>
<!-- client -->
<g id="node1" class="node">
<title>client</title>
<path fill="#eef2ff" stroke="#334155" d="M451.5,-625.5C451.5,-625.5 321.5,-625.5 321.5,-625.5 315.5,-625.5 309.5,-619.5 309.5,-613.5 309.5,-613.5 309.5,-560.5 309.5,-560.5 309.5,-554.5 315.5,-548.5 321.5,-548.5 321.5,-548.5 451.5,-548.5 451.5,-548.5 457.5,-548.5 463.5,-554.5 463.5,-560.5 463.5,-560.5 463.5,-613.5 463.5,-613.5 463.5,-619.5 457.5,-625.5 451.5,-625.5"/>
<text text-anchor="middle" x="386.5" y="-609.9" font-family="Arial" font-size="12.00">Client / Upstream Service</text>
<text text-anchor="middle" x="386.5" y="-596.9" font-family="Arial" font-size="12.00">• submit single DB call</text>
<text text-anchor="middle" x="386.5" y="-583.9" font-family="Arial" font-size="12.00">• submit batch dataset</text>
<text text-anchor="middle" x="386.5" y="-570.9" font-family="Arial" font-size="12.00">• start async job</text>
<text text-anchor="middle" x="386.5" y="-557.9" font-family="Arial" font-size="12.00">• poll status/result</text>
</g>
<!-- query -->
<g id="node3" class="node">
<title>query</title>
<path fill="#fef9c3" stroke="#334155" d="M720,-697.5C720,-697.5 610,-697.5 610,-697.5 604,-697.5 598,-691.5 598,-685.5 598,-685.5 598,-658.5 598,-658.5 598,-652.5 604,-646.5 610,-646.5 610,-646.5 720,-646.5 720,-646.5 726,-646.5 732,-652.5 732,-658.5 732,-658.5 732,-685.5 732,-685.5 732,-691.5 726,-697.5 720,-697.5"/>
<text text-anchor="middle" x="665" y="-681.9" font-family="Arial" font-size="12.00">GET /query</text>
<text text-anchor="middle" x="665" y="-668.9" font-family="Arial" font-size="12.00">Raw SQL DQL/DML</text>
<text text-anchor="middle" x="665" y="-655.9" font-family="Arial" font-size="12.00">Demo/diagnostic only</text>
</g>
<!-- client&#45;&gt;query -->
<g id="edge1" class="edge">
<title>client&#45;&gt;query</title>
<path fill="none" stroke="#475569" d="M463.81,-617.7C539.33,-617.7 643,-617.7 643,-617.7 643,-617.7 643,-638.44 643,-638.44"/>
<polygon fill="#475569" stroke="#475569" points="640.2,-638.44 643,-646.44 645.8,-638.44 640.2,-638.44"/>
</g>
<!-- dynpst -->
<g id="node4" class="node">
<title>dynpst</title>
<path fill="#dbeafe" stroke="#334155" d="M735.5,-358.5C735.5,-358.5 594.5,-358.5 594.5,-358.5 588.5,-358.5 582.5,-352.5 582.5,-346.5 582.5,-346.5 582.5,-319.5 582.5,-319.5 582.5,-313.5 588.5,-307.5 594.5,-307.5 594.5,-307.5 735.5,-307.5 735.5,-307.5 741.5,-307.5 747.5,-313.5 747.5,-319.5 747.5,-319.5 747.5,-346.5 747.5,-346.5 747.5,-352.5 741.5,-358.5 735.5,-358.5"/>
<text text-anchor="middle" x="665" y="-342.9" font-family="Arial" font-size="12.00">POST /dynpst/{alias}</text>
<text text-anchor="middle" x="665" y="-329.9" font-family="Arial" font-size="12.00">Single prepared statement /</text>
<text text-anchor="middle" x="665" y="-316.9" font-family="Arial" font-size="12.00">stored procedure / function</text>
</g>
<!-- client&#45;&gt;dynpst -->
<g id="edge2" class="edge">
<title>client&#45;&gt;dynpst</title>
<path fill="none" stroke="#475569" d="M448,-548.42C448,-477.37 448,-333 448,-333 448,-333 574.34,-333 574.34,-333"/>
<polygon fill="#475569" stroke="#475569" points="574.34,-335.8 582.34,-333 574.34,-330.2 574.34,-335.8"/>
</g>
<!-- batch -->
<g id="node5" class="node">
<title>batch</title>
<path fill="#dbeafe" stroke="#334155" d="M735,-606C735,-606 595,-606 595,-606 589,-606 583,-600 583,-594 583,-594 583,-580 583,-580 583,-574 589,-568 595,-568 595,-568 735,-568 735,-568 741,-568 747,-574 747,-580 747,-580 747,-594 747,-594 747,-600 741,-606 735,-606"/>
<text text-anchor="middle" x="665" y="-590.4" font-family="Arial" font-size="12.00">POST /batch/{alias}</text>
<text text-anchor="middle" x="665" y="-577.4" font-family="Arial" font-size="12.00">Synchronous parallel batch</text>
</g>
<!-- client&#45;&gt;batch -->
<g id="edge3" class="edge">
<title>client&#45;&gt;batch</title>
<path fill="none" stroke="#475569" d="M463.71,-593.33C463.71,-593.33 574.77,-593.33 574.77,-593.33"/>
<polygon fill="#475569" stroke="#475569" points="574.77,-596.13 582.77,-593.33 574.77,-590.53 574.77,-596.13"/>
</g>
<!-- start -->
<g id="node6" class="node">
<title>start</title>
<path fill="#dbeafe" stroke="#334155" d="M739.5,-776C739.5,-776 590.5,-776 590.5,-776 584.5,-776 578.5,-770 578.5,-764 578.5,-764 578.5,-750 578.5,-750 578.5,-744 584.5,-738 590.5,-738 590.5,-738 739.5,-738 739.5,-738 745.5,-738 751.5,-744 751.5,-750 751.5,-750 751.5,-764 751.5,-764 751.5,-770 745.5,-776 739.5,-776"/>
<text text-anchor="middle" x="665" y="-760.4" font-family="Arial" font-size="12.00">POST /startAsyncTask/{alias}</text>
<text text-anchor="middle" x="665" y="-747.4" font-family="Arial" font-size="12.00">Submit async batch</text>
</g>
<!-- client&#45;&gt;start -->
<g id="edge4" class="edge">
<title>client&#45;&gt;start</title>
<path fill="none" stroke="#475569" d="M463.52,-621.6C521.49,-621.6 591,-621.6 591,-621.6 591,-621.6 591,-729.89 591,-729.89"/>
<polygon fill="#475569" stroke="#475569" points="588.2,-729.89 591,-737.89 593.8,-729.89 588.2,-729.89"/>
</g>
<!-- status -->
<g id="node7" class="node">
<title>status</title>
<path fill="#dbeafe" stroke="#334155" d="M715.5,-449.5C715.5,-449.5 614.5,-449.5 614.5,-449.5 608.5,-449.5 602.5,-443.5 602.5,-437.5 602.5,-437.5 602.5,-410.5 602.5,-410.5 602.5,-404.5 608.5,-398.5 614.5,-398.5 614.5,-398.5 715.5,-398.5 715.5,-398.5 721.5,-398.5 727.5,-404.5 727.5,-410.5 727.5,-410.5 727.5,-437.5 727.5,-437.5 727.5,-443.5 721.5,-449.5 715.5,-449.5"/>
<text text-anchor="middle" x="665" y="-433.9" font-family="Arial" font-size="12.00">GET /taskStatus/{id}</text>
<text text-anchor="middle" x="665" y="-420.9" font-family="Arial" font-size="12.00">GET /taskResult/{id}</text>
<text text-anchor="middle" x="665" y="-407.9" font-family="Arial" font-size="12.00">GET /tasksStatus</text>
</g>
<!-- client&#45;&gt;status -->
<g id="edge5" class="edge">
<title>client&#45;&gt;status</title>
<path fill="none" stroke="#475569" d="M456,-548.37C456,-500.17 456,-424 456,-424 456,-424 594.29,-424 594.29,-424"/>
<polygon fill="#475569" stroke="#475569" points="594.29,-426.8 602.29,-424 594.29,-421.2 594.29,-426.8"/>
</g>
<!-- web -->
<g id="node2" class="node">
<title>web</title>
<path fill="#eef2ff" stroke="#334155" d="M427.5,-508C427.5,-508 345.5,-508 345.5,-508 339.5,-508 333.5,-502 333.5,-496 333.5,-496 333.5,-482 333.5,-482 333.5,-476 339.5,-470 345.5,-470 345.5,-470 427.5,-470 427.5,-470 433.5,-470 439.5,-476 439.5,-482 439.5,-482 439.5,-496 439.5,-496 439.5,-502 433.5,-508 427.5,-508"/>
<text text-anchor="middle" x="386.5" y="-492.4" font-family="Arial" font-size="12.00">Optional Web UI</text>
<text text-anchor="middle" x="386.5" y="-479.4" font-family="Arial" font-size="12.00">CORS&#45;enabled</text>
</g>
<!-- web&#45;&gt;dynpst -->
<g id="edge6" class="edge">
<title>web&#45;&gt;dynpst</title>
<path fill="none" stroke="#475569" d="M439.68,-480.53C500.86,-480.53 593,-480.53 593,-480.53 593,-480.53 593,-366.7 593,-366.7"/>
<polygon fill="#475569" stroke="#475569" points="595.8,-366.7 593,-358.7 590.2,-366.7 595.8,-366.7"/>
</g>
<!-- web&#45;&gt;batch -->
<g id="edge7" class="edge">
<title>web&#45;&gt;batch</title>
<path fill="none" stroke="#475569" d="M439.68,-499C455.64,-499 469,-499 469,-499 469,-499 469,-580.67 469,-580.67 469,-580.67 574.73,-580.67 574.73,-580.67"/>
<polygon fill="#475569" stroke="#475569" points="574.73,-583.47 582.73,-580.67 574.73,-577.87 574.73,-583.47"/>
</g>
<!-- controller -->
<g id="node9" class="node">
<title>controller</title>
<path fill="#e0f2fe" stroke="#334155" d="M1160.5,-629C1160.5,-629 995.5,-629 995.5,-629 989.5,-629 983.5,-623 983.5,-617 983.5,-617 983.5,-603 983.5,-603 983.5,-597 989.5,-591 995.5,-591 995.5,-591 1160.5,-591 1160.5,-591 1166.5,-591 1172.5,-597 1172.5,-603 1172.5,-603 1172.5,-617 1172.5,-617 1172.5,-623 1166.5,-629 1160.5,-629"/>
<text text-anchor="middle" x="1078" y="-613.4" font-family="Arial" font-size="12.00">DynamicDataController</text>
<text text-anchor="middle" x="1078" y="-600.4" font-family="Arial" font-size="12.00">endpoint delegation + validation</text>
</g>
<!-- query&#45;&gt;controller -->
<g id="edge8" class="edge">
<title>query&#45;&gt;controller</title>
<path fill="none" stroke="#475569" d="M688,-646.38C688,-629.28 688,-609.9 688,-609.9 688,-609.9 975.09,-609.9 975.09,-609.9"/>
<polygon fill="#475569" stroke="#475569" points="975.09,-612.7 983.09,-609.9 975.09,-607.1 975.09,-612.7"/>
</g>
<!-- dynpst&#45;&gt;controller -->
<g id="edge9" class="edge">
<title>dynpst&#45;&gt;controller</title>
<path fill="none" stroke="#475569" d="M747.64,-341.96C883.95,-341.96 1141,-341.96 1141,-341.96 1141,-341.96 1141,-582.72 1141,-582.72"/>
<polygon fill="#475569" stroke="#475569" points="1138.2,-582.72 1141,-590.72 1143.8,-582.72 1138.2,-582.72"/>
</g>
<!-- batch&#45;&gt;controller -->
<g id="edge10" class="edge">
<title>batch&#45;&gt;controller</title>
<path fill="none" stroke="#475569" d="M747.09,-598.5C747.09,-598.5 975.42,-598.5 975.42,-598.5"/>
<polygon fill="#475569" stroke="#475569" points="975.42,-601.3 983.42,-598.5 975.42,-595.7 975.42,-601.3"/>
</g>
<!-- start&#45;&gt;controller -->
<g id="edge11" class="edge">
<title>start&#45;&gt;controller</title>
<path fill="none" stroke="#475569" d="M740,-737.98C740,-699.03 740,-613.8 740,-613.8 740,-613.8 975.4,-613.8 975.4,-613.8"/>
<polygon fill="#475569" stroke="#475569" points="975.4,-616.6 983.4,-613.8 975.4,-611 975.4,-616.6"/>
</g>
<!-- status&#45;&gt;controller -->
<g id="edge12" class="edge">
<title>status&#45;&gt;controller</title>
<path fill="none" stroke="#475569" d="M727.81,-433.31C850.48,-433.31 1110,-433.31 1110,-433.31 1110,-433.31 1110,-582.75 1110,-582.75"/>
<polygon fill="#475569" stroke="#475569" points="1107.2,-582.75 1110,-590.75 1112.8,-582.76 1107.2,-582.75"/>
</g>
<!-- metrics -->
<g id="node8" class="node">
<title>metrics</title>
<path fill="#dcfce7" stroke="#334155" d="M740,-528C740,-528 590,-528 590,-528 584,-528 578,-522 578,-516 578,-516 578,-502 578,-502 578,-496 584,-490 590,-490 590,-490 740,-490 740,-490 746,-490 752,-496 752,-502 752,-502 752,-516 752,-516 752,-522 746,-528 740,-528"/>
<text text-anchor="middle" x="665" y="-512.4" font-family="Arial" font-size="12.00">HTTP Request Counter Filter</text>
<text text-anchor="middle" x="665" y="-499.4" font-family="Arial" font-size="12.00">Micrometer / Actuator metrics</text>
</g>
<!-- controller&#45;&gt;metrics -->
<g id="edge13" class="edge">
<title>controller&#45;&gt;metrics</title>
<path fill="none" stroke="#475569" stroke-dasharray="5,2" d="M1078,-590.91C1078,-561.51 1078,-508.5 1078,-508.5 1078,-508.5 760.08,-508.5 760.08,-508.5"/>
<polygon fill="#475569" stroke="#475569" points="760.08,-505.7 752.08,-508.5 760.08,-511.3 760.08,-505.7"/>
<text text-anchor="middle" x="871.5" y="-549" font-family="Arial" font-size="10.00">request counted</text>
</g>
<!-- service -->
<g id="node10" class="node">
<title>service</title>
<path fill="#e0f2fe" stroke="#334155" d="M2182,-617C2182,-617 2017,-617 2017,-617 2011,-617 2005,-611 2005,-605 2005,-605 2005,-539 2005,-539 2005,-533 2011,-527 2017,-527 2017,-527 2182,-527 2182,-527 2188,-527 2194,-533 2194,-539 2194,-539 2194,-605 2194,-605 2194,-611 2188,-617 2182,-617"/>
<text text-anchor="middle" x="2099.5" y="-601.4" font-family="Arial" font-size="12.00">DynamicDataService</text>
<text text-anchor="middle" x="2099.5" y="-588.4" font-family="Arial" font-size="12.00">JDBC execution engine</text>
<text text-anchor="middle" x="2099.5" y="-575.4" font-family="Arial" font-size="12.00">• route per row</text>
<text text-anchor="middle" x="2099.5" y="-562.4" font-family="Arial" font-size="12.00">• bind params</text>
<text text-anchor="middle" x="2099.5" y="-549.4" font-family="Arial" font-size="12.00">• execute DQL/DML/SP/function</text>
<text text-anchor="middle" x="2099.5" y="-536.4" font-family="Arial" font-size="12.00">• merge results</text>
</g>
<!-- controller&#45;&gt;service -->
<g id="edge14" class="edge">
<title>controller&#45;&gt;service</title>
<path fill="none" stroke="#475569" d="M1172.73,-601.4C1172.73,-601.4 1996.82,-601.4 1996.82,-601.4"/>
<polygon fill="#475569" stroke="#475569" points="1996.82,-604.2 2004.82,-601.4 1996.82,-598.6 1996.82,-604.2"/>
<text text-anchor="middle" x="1586" y="-674" font-family="Arial" font-size="10.00">single/batch execution</text>
</g>
<!-- async -->
<g id="node11" class="node">
<title>async</title>
<path fill="#e0f2fe" stroke="#334155" d="M1681.5,-591C1681.5,-591 1490.5,-591 1490.5,-591 1484.5,-591 1478.5,-585 1478.5,-579 1478.5,-579 1478.5,-539 1478.5,-539 1478.5,-533 1484.5,-527 1490.5,-527 1490.5,-527 1681.5,-527 1681.5,-527 1687.5,-527 1693.5,-533 1693.5,-539 1693.5,-539 1693.5,-579 1693.5,-579 1693.5,-585 1687.5,-591 1681.5,-591"/>
<text text-anchor="middle" x="1586" y="-575.4" font-family="Arial" font-size="12.00">AsyncService</text>
<text text-anchor="middle" x="1586" y="-562.4" font-family="Arial" font-size="12.00">Task registry</text>
<text text-anchor="middle" x="1586" y="-549.4" font-family="Arial" font-size="12.00">ConcurrentHashMap&lt;taskId, Future&gt;</text>
<text text-anchor="middle" x="1586" y="-536.4" font-family="Arial" font-size="12.00">TTL cleanup</text>
</g>
<!-- controller&#45;&gt;async -->
<g id="edge15" class="edge">
<title>controller&#45;&gt;async</title>
<path fill="none" stroke="#475569" d="M1047,-590.83C1047,-582.96 1047,-575.67 1047,-575.67 1047,-575.67 1470.22,-575.67 1470.22,-575.67"/>
<polygon fill="#475569" stroke="#475569" points="1470.22,-578.47 1478.22,-575.67 1470.22,-572.87 1470.22,-578.47"/>
<text text-anchor="middle" x="1276" y="-570" font-family="Arial" font-size="10.00">async submit/status/result</text>
</g>
<!-- service&#45;&gt;controller -->
<g id="edge38" class="edge">
<title>service&#45;&gt;controller</title>
<path fill="none" stroke="#475569" d="M2004.77,-606.6C2004.77,-606.6 1180.68,-606.6 1180.68,-606.6"/>
<polygon fill="#475569" stroke="#475569" points="1180.68,-603.8 1172.68,-606.6 1180.68,-609.4 1180.68,-603.8"/>
<text text-anchor="middle" x="1586" y="-765" font-family="Arial" font-size="10.00">merged response</text>
</g>
<!-- splitter -->
<g id="node15" class="node">
<title>splitter</title>
<path fill="#ffedd5" stroke="#334155" d="M1181,-67.5C1181,-67.5 975,-67.5 975,-67.5 969,-67.5 963,-61.5 963,-55.5 963,-55.5 963,-28.5 963,-28.5 963,-22.5 969,-16.5 975,-16.5 975,-16.5 1181,-16.5 1181,-16.5 1187,-16.5 1193,-22.5 1193,-28.5 1193,-28.5 1193,-55.5 1193,-55.5 1193,-61.5 1187,-67.5 1181,-67.5"/>
<text text-anchor="middle" x="1078" y="-51.9" font-family="Arial" font-size="12.00">Batch splitter</text>
<text text-anchor="middle" x="1078" y="-38.9" font-family="Arial" font-size="12.00">splitList2sublists()</text>
<text text-anchor="middle" x="1078" y="-25.9" font-family="Arial" font-size="12.00">max app.batch.max&#45;threads&#45;per&#45;request</text>
</g>
<!-- service&#45;&gt;splitter -->
<g id="edge24" class="edge">
<title>service&#45;&gt;splitter</title>
<path fill="none" stroke="#475569" d="M2004.65,-596.2C1798.11,-596.2 1326,-596.2 1326,-596.2 1326,-596.2 1326,-50.5 1326,-50.5 1326,-50.5 1201.29,-50.5 1201.29,-50.5"/>
<polygon fill="#475569" stroke="#475569" points="1201.29,-47.7 1193.29,-50.5 1201.29,-53.3 1201.29,-47.7"/>
<text text-anchor="middle" x="1586" y="-151" font-family="Arial" font-size="10.00">batch request</text>
</g>
<!-- ctx -->
<g id="node18" class="node">
<title>ctx</title>
<path fill="#f1f5f9" stroke="#334155" d="M211,-177C211,-177 28,-177 28,-177 22,-177 16,-171 16,-165 16,-165 16,-151 16,-151 16,-145 22,-139 28,-139 28,-139 211,-139 211,-139 217,-139 223,-145 223,-151 223,-151 223,-165 223,-165 223,-171 217,-177 211,-177"/>
<text text-anchor="middle" x="119.5" y="-161.4" font-family="Arial" font-size="12.00">DynamicDataSourceContextHolder</text>
<text text-anchor="middle" x="119.5" y="-148.4" font-family="Arial" font-size="12.00">ThreadLocal connection key</text>
</g>
<!-- service&#45;&gt;ctx -->
<g id="edge28" class="edge">
<title>service&#45;&gt;ctx</title>
<path fill="none" stroke="#475569" d="M2118,-526.8C2118,-449.04 2118,-298.25 2118,-298.25 2118,-298.25 120,-298.25 120,-298.25 120,-298.25 120,-185.21 120,-185.21"/>
<polygon fill="#475569" stroke="#475569" points="122.8,-185.21 120,-177.21 117.2,-185.21 122.8,-185.21"/>
<text text-anchor="middle" x="871.5" y="-1001" font-family="Arial" font-size="10.00">set connection from each item</text>
</g>
<!-- async&#45;&gt;controller -->
<g id="edge39" class="edge">
<title>async&#45;&gt;controller</title>
<path fill="none" stroke="#475569" d="M1478.26,-583.33C1312.79,-583.33 1015,-583.33 1015,-583.33 1015,-583.33 1015,-584.09 1015,-584.09"/>
<polygon fill="#475569" stroke="#475569" points="1012.2,-582.9 1015,-590.9 1017.8,-582.9 1012.2,-582.9"/>
<text text-anchor="middle" x="1276" y="-626" font-family="Arial" font-size="10.00">taskId/status/result</text>
</g>
<!-- async&#45;&gt;service -->
<g id="edge16" class="edge">
<title>async&#45;&gt;service</title>
<path fill="none" stroke="#475569" d="M1693.65,-575C1693.65,-575 1996.94,-575 1996.94,-575"/>
<polygon fill="#475569" stroke="#475569" points="1996.94,-577.8 2004.94,-575 1996.94,-572.2 1996.94,-577.8"/>
<text text-anchor="middle" x="1909" y="-573" font-family="Arial" font-size="10.00">background batch</text>
</g>
<!-- queue -->
<g id="node17" class="node">
<title>queue</title>
<polygon fill="#ffedd5" stroke="#334155" points="2188,-68 2011,-68 2011,-64 2007,-64 2007,-60 2011,-60 2011,-38 2007,-38 2007,-34 2011,-34 2011,-30 2188,-30 2188,-68"/>
<polyline fill="none" stroke="#334155" points="2011,-64 2015,-64 2015,-60 2011,-60 "/>
<polyline fill="none" stroke="#334155" points="2011,-38 2015,-38 2015,-34 2011,-34 "/>
<text text-anchor="middle" x="2099.5" y="-52.4" font-family="Arial" font-size="12.00">Internal executor work queue</text>
<text text-anchor="middle" x="2099.5" y="-39.4" font-family="Arial" font-size="12.00">not a durable message queue</text>
</g>
<!-- async&#45;&gt;queue -->
<g id="edge17" class="edge">
<title>async&#45;&gt;queue</title>
<path fill="none" stroke="#475569" d="M1693.51,-559C1770.27,-559 1860,-559 1860,-559 1860,-559 1860,-55 1860,-55 1860,-55 2003,-55 2003,-55"/>
<polygon fill="#475569" stroke="#475569" points="2003,-57.8 2011,-55 2003,-52.2 2003,-57.8"/>
<text text-anchor="middle" x="1909" y="-514" font-family="Arial" font-size="10.00">stores Future</text>
</g>
<!-- aliasfiles -->
<g id="node12" class="node">
<title>aliasfiles</title>
<path fill="#fce7f3" stroke="#334155" d="M751,-872C751,-872 579,-872 579,-872 573,-872 567,-866 567,-860 567,-860 567,-846 567,-846 567,-840 573,-834 579,-834 579,-834 751,-834 751,-834 757,-834 763,-840 763,-846 763,-846 763,-860 763,-860 763,-866 757,-872 751,-872"/>
<text text-anchor="middle" x="665" y="-856.4" font-family="Arial" font-size="12.00">AliasFiles loader</text>
<text text-anchor="middle" x="665" y="-843.4" font-family="Arial" font-size="12.00">loads JSON descriptors at startup</text>
</g>
<!-- aliasconfig -->
<g id="node13" class="node">
<title>aliasconfig</title>
<path fill="#fce7f3" stroke="#334155" d="M1167.5,-872C1167.5,-872 988.5,-872 988.5,-872 982.5,-872 976.5,-866 976.5,-860 976.5,-860 976.5,-846 976.5,-846 976.5,-840 982.5,-834 988.5,-834 988.5,-834 1167.5,-834 1167.5,-834 1173.5,-834 1179.5,-840 1179.5,-846 1179.5,-846 1179.5,-860 1179.5,-860 1179.5,-866 1173.5,-872 1167.5,-872"/>
<text text-anchor="middle" x="1078" y="-856.4" font-family="Arial" font-size="12.00">AliasConfig map</text>
<text text-anchor="middle" x="1078" y="-843.4" font-family="Arial" font-size="12.00">{aliasName &#45;&gt; operation metadata}</text>
</g>
<!-- aliasfiles&#45;&gt;aliasconfig -->
<g id="edge19" class="edge">
<title>aliasfiles&#45;&gt;aliasconfig</title>
<path fill="none" stroke="#475569" d="M763.14,-853C763.14,-853 968.28,-853 968.28,-853"/>
<polygon fill="#475569" stroke="#475569" points="968.28,-855.8 976.28,-853 968.28,-850.2 968.28,-855.8"/>
</g>
<!-- aliasconfig&#45;&gt;service -->
<g id="edge20" class="edge">
<title>aliasconfig&#45;&gt;service</title>
<path fill="none" stroke="#475569" d="M1176,-833.67C1176,-776.43 1176,-611.8 1176,-611.8 1176,-611.8 1996.58,-611.8 1996.58,-611.8"/>
<polygon fill="#475569" stroke="#475569" points="1996.58,-614.6 2004.58,-611.8 1996.58,-609 1996.58,-614.6"/>
<text text-anchor="middle" x="1586" y="-856" font-family="Arial" font-size="10.00">operation type + SQL/SP metadata</text>
</g>
<!-- descriptors -->
<g id="node14" class="node">
<title>descriptors</title>
<polygon fill="#fce7f3" stroke="#334155" points="474.5,-909.5 471.5,-913.5 450.5,-913.5 447.5,-909.5 298.5,-909.5 298.5,-832.5 474.5,-832.5 474.5,-909.5"/>
<text text-anchor="middle" x="386.5" y="-893.9" font-family="Arial" font-size="12.00">/access_descriptor/*.json</text>
<text text-anchor="middle" x="386.5" y="-880.9" font-family="Arial" font-size="12.00">• prepared_statement.json</text>
<text text-anchor="middle" x="386.5" y="-867.9" font-family="Arial" font-size="12.00">• callable&#45;statement JSON</text>
<text text-anchor="middle" x="386.5" y="-854.9" font-family="Arial" font-size="12.00">• in/out JDBC param types</text>
<text text-anchor="middle" x="386.5" y="-841.9" font-family="Arial" font-size="12.00">• DB package/function names</text>
</g>
<!-- descriptors&#45;&gt;aliasfiles -->
<g id="edge18" class="edge">
<title>descriptors&#45;&gt;aliasfiles</title>
<path fill="none" stroke="#475569" d="M474.62,-853C474.62,-853 558.81,-853 558.81,-853"/>
<polygon fill="#475569" stroke="#475569" points="558.81,-855.8 566.81,-853 558.81,-850.2 558.81,-855.8"/>
</g>
<!-- executor -->
<g id="node16" class="node">
<title>executor</title>
<path fill="#ffedd5" stroke="#334155" d="M1702,-67.5C1702,-67.5 1470,-67.5 1470,-67.5 1464,-67.5 1458,-61.5 1458,-55.5 1458,-55.5 1458,-28.5 1458,-28.5 1458,-22.5 1464,-16.5 1470,-16.5 1470,-16.5 1702,-16.5 1702,-16.5 1708,-16.5 1714,-22.5 1714,-28.5 1714,-28.5 1714,-55.5 1714,-55.5 1714,-61.5 1708,-67.5 1702,-67.5"/>
<text text-anchor="middle" x="1586" y="-51.9" font-family="Arial" font-size="12.00">Shared ExecutorService</text>
<text text-anchor="middle" x="1586" y="-38.9" font-family="Arial" font-size="12.00">CompletableFuture workers</text>
<text text-anchor="middle" x="1586" y="-25.9" font-family="Arial" font-size="12.00">size = min(DB count × per&#45;db max, total max)</text>
</g>
<!-- splitter&#45;&gt;executor -->
<g id="edge25" class="edge">
<title>splitter&#45;&gt;executor</title>
<path fill="none" stroke="#475569" d="M1193.27,-33.5C1193.27,-33.5 1449.79,-33.5 1449.79,-33.5"/>
<polygon fill="#475569" stroke="#475569" points="1449.79,-36.3 1457.79,-33.5 1449.79,-30.7 1449.79,-36.3"/>
<text text-anchor="middle" x="1276" y="-59" font-family="Arial" font-size="10.00">partitions</text>
</g>
<!-- executor&#45;&gt;service -->
<g id="edge27" class="edge">
<title>executor&#45;&gt;service</title>
<path fill="none" stroke="#475569" d="M1704,-67.53C1704,-169.63 1704,-543 1704,-543 1704,-543 1996.77,-543 1996.77,-543"/>
<polygon fill="#475569" stroke="#475569" points="1996.77,-545.8 2004.77,-543 1996.77,-540.2 1996.77,-545.8"/>
<text text-anchor="middle" x="1909" y="-115" font-family="Arial" font-size="10.00">parallel partition execution</text>
</g>
<!-- executor&#45;&gt;queue -->
<g id="edge26" class="edge">
<title>executor&#45;&gt;queue</title>
<path fill="none" stroke="#475569" d="M1722.25,-42.5C1722.25,-42.5 2002.71,-42.5 2002.71,-42.5"/>
<polygon fill="#475569" stroke="#475569" points="2002.71,-45.3 2010.71,-42.5 2002.71,-39.7 2002.71,-45.3"/>
<polygon fill="#475569" stroke="#475569" points="1722.25,-39.7 1714.25,-42.5 1722.25,-45.3 1722.25,-39.7"/>
<text text-anchor="middle" x="1909" y="-59" font-family="Arial" font-size="10.00">worker scheduling</text>
</g>
<!-- router -->
<g id="node19" class="node">
<title>router</title>
<path fill="#f1f5f9" stroke="#334155" d="M464.5,-177C464.5,-177 308.5,-177 308.5,-177 302.5,-177 296.5,-171 296.5,-165 296.5,-165 296.5,-151 296.5,-151 296.5,-145 302.5,-139 308.5,-139 308.5,-139 464.5,-139 464.5,-139 470.5,-139 476.5,-145 476.5,-151 476.5,-151 476.5,-165 476.5,-165 476.5,-171 470.5,-177 464.5,-177"/>
<text text-anchor="middle" x="386.5" y="-161.4" font-family="Arial" font-size="12.00">AbstractRoutingDataSource</text>
<text text-anchor="middle" x="386.5" y="-148.4" font-family="Arial" font-size="12.00">determineCurrentLookupKey()</text>
</g>
<!-- ctx&#45;&gt;router -->
<g id="edge29" class="edge">
<title>ctx&#45;&gt;router</title>
<path fill="none" stroke="#475569" d="M223.11,-158C223.11,-158 288.41,-158 288.41,-158"/>
<polygon fill="#475569" stroke="#475569" points="288.41,-160.8 296.41,-158 288.41,-155.2 288.41,-160.8"/>
</g>
<!-- pools -->
<g id="node20" class="node">
<title>pools</title>
<path fill="#f1f5f9" stroke="#334155" d="M735.5,-177C735.5,-177 594.5,-177 594.5,-177 588.5,-177 582.5,-171 582.5,-165 582.5,-165 582.5,-151 582.5,-151 582.5,-145 588.5,-139 594.5,-139 594.5,-139 735.5,-139 735.5,-139 741.5,-139 747.5,-145 747.5,-151 747.5,-151 747.5,-165 747.5,-165 747.5,-171 741.5,-177 735.5,-177"/>
<text text-anchor="middle" x="665" y="-161.4" font-family="Arial" font-size="12.00">HikariCP pools</text>
<text text-anchor="middle" x="665" y="-148.4" font-family="Arial" font-size="12.00">one pool per configured DB</text>
</g>
<!-- router&#45;&gt;pools -->
<g id="edge30" class="edge">
<title>router&#45;&gt;pools</title>
<path fill="none" stroke="#475569" d="M476.54,-151.67C476.54,-151.67 574.35,-151.67 574.35,-151.67"/>
<polygon fill="#475569" stroke="#475569" points="574.35,-154.47 582.35,-151.67 574.35,-148.87 574.35,-154.47"/>
</g>
<!-- jdbc -->
<g id="node21" class="node">
<title>jdbc</title>
<path fill="#f1f5f9" stroke="#334155" d="M1181,-177C1181,-177 975,-177 975,-177 969,-177 963,-171 963,-165 963,-165 963,-151 963,-151 963,-145 969,-139 975,-139 975,-139 1181,-139 1181,-139 1187,-139 1193,-145 1193,-151 1193,-151 1193,-165 1193,-165 1193,-171 1187,-177 1181,-177"/>
<text text-anchor="middle" x="1078" y="-161.4" font-family="Arial" font-size="12.00">JdbcTemplate / SimpleJdbcCall</text>
<text text-anchor="middle" x="1078" y="-148.4" font-family="Arial" font-size="12.00">PreparedStatement / CallableStatement</text>
</g>
<!-- pools&#45;&gt;jdbc -->
<g id="edge31" class="edge">
<title>pools&#45;&gt;jdbc</title>
<path fill="none" stroke="#475569" d="M747.58,-158C747.58,-158 954.71,-158 954.71,-158"/>
<polygon fill="#475569" stroke="#475569" points="954.71,-160.8 962.71,-158 954.71,-155.2 954.71,-160.8"/>
</g>
<!-- db1 -->
<g id="node22" class="node">
<title>db1</title>
<path fill="#ecfccb" stroke="#334155" d="M1657,-262.74C1657,-266.26 1625.18,-269.13 1586,-269.13 1546.82,-269.13 1515,-266.26 1515,-262.74 1515,-262.74 1515,-205.26 1515,-205.26 1515,-201.74 1546.82,-198.87 1586,-198.87 1625.18,-198.87 1657,-201.74 1657,-205.26 1657,-205.26 1657,-262.74 1657,-262.74"/>
<path fill="none" stroke="#334155" d="M1657,-262.74C1657,-259.21 1625.18,-256.35 1586,-256.35 1546.82,-256.35 1515,-259.21 1515,-262.74"/>
<text text-anchor="middle" x="1586" y="-243.9" font-family="Arial" font-size="12.00">DB1</text>
<text text-anchor="middle" x="1586" y="-230.9" font-family="Arial" font-size="12.00">Oracle package/procs</text>
<text text-anchor="middle" x="1586" y="-217.9" font-family="Arial" font-size="12.00">or PostgreSQL schema</text>
</g>
<!-- jdbc&#45;&gt;db1 -->
<g id="edge32" class="edge">
<title>jdbc&#45;&gt;db1</title>
<path fill="none" stroke="#475569" d="M1190,-177.18C1190,-192.69 1190,-211.97 1190,-211.97 1190,-211.97 1506.75,-211.97 1506.75,-211.97"/>
<polygon fill="#475569" stroke="#475569" points="1506.75,-214.77 1514.75,-211.97 1506.75,-209.17 1506.75,-214.77"/>
</g>
<!-- db2 -->
<g id="node23" class="node">
<title>db2</title>
<path fill="#ecfccb" stroke="#334155" d="M1650,-464.74C1650,-468.26 1621.31,-471.13 1586,-471.13 1550.69,-471.13 1522,-468.26 1522,-464.74 1522,-464.74 1522,-407.26 1522,-407.26 1522,-403.74 1550.69,-400.87 1586,-400.87 1621.31,-400.87 1650,-403.74 1650,-407.26 1650,-407.26 1650,-464.74 1650,-464.74"/>
<path fill="none" stroke="#334155" d="M1650,-464.74C1650,-461.21 1621.31,-458.35 1586,-458.35 1550.69,-458.35 1522,-461.21 1522,-464.74"/>
<text text-anchor="middle" x="1586" y="-445.9" font-family="Arial" font-size="12.00">DB2</text>
<text text-anchor="middle" x="1586" y="-432.9" font-family="Arial" font-size="12.00">MySQL / SQL Server</text>
<text text-anchor="middle" x="1586" y="-419.9" font-family="Arial" font-size="12.00">Tenant or shard</text>
</g>
<!-- jdbc&#45;&gt;db2 -->
<g id="edge33" class="edge">
<title>jdbc&#45;&gt;db2</title>
<path fill="none" stroke="#475569" d="M1183,-177.05C1183,-236.9 1183,-417.12 1183,-417.12 1183,-417.12 1513.7,-417.12 1513.7,-417.12"/>
<polygon fill="#475569" stroke="#475569" points="1513.7,-419.93 1521.7,-417.12 1513.7,-414.33 1513.7,-419.93"/>
</g>
<!-- db3 -->
<g id="node24" class="node">
<title>db3</title>
<path fill="#ecfccb" stroke="#334155" d="M1649,-356.48C1649,-359.11 1620.76,-361.25 1586,-361.25 1551.24,-361.25 1523,-359.11 1523,-356.48 1523,-356.48 1523,-313.52 1523,-313.52 1523,-310.89 1551.24,-308.75 1586,-308.75 1620.76,-308.75 1649,-310.89 1649,-313.52 1649,-313.52 1649,-356.48 1649,-356.48"/>
<path fill="none" stroke="#334155" d="M1649,-356.48C1649,-353.84 1620.76,-351.7 1586,-351.7 1551.24,-351.7 1523,-353.84 1523,-356.48"/>
<text text-anchor="middle" x="1586" y="-338.4" font-family="Arial" font-size="12.00">DB3..DBn</text>
<text text-anchor="middle" x="1586" y="-325.4" font-family="Arial" font-size="12.00">legacy DB / partition</text>
</g>
<!-- jdbc&#45;&gt;db3 -->
<g id="edge34" class="edge">
<title>jdbc&#45;&gt;db3</title>
<path fill="none" stroke="#475569" d="M1187,-177.2C1187,-221.18 1187,-325.42 1187,-325.42 1187,-325.42 1514.78,-325.42 1514.78,-325.42"/>
<polygon fill="#475569" stroke="#475569" points="1514.78,-328.22 1522.78,-325.42 1514.78,-322.62 1514.78,-328.22"/>
</g>
<!-- db1&#45;&gt;service -->
<g id="edge35" class="edge">
<title>db1&#45;&gt;service</title>
<path fill="none" stroke="#475569" d="M1657.24,-234C1809.52,-234 2153,-234 2153,-234 2153,-234 2153,-518.77 2153,-518.77"/>
<polygon fill="#475569" stroke="#475569" points="2150.2,-518.77 2153,-526.77 2155.8,-518.77 2150.2,-518.77"/>
<text text-anchor="middle" x="1909" y="-269" font-family="Arial" font-size="10.00">rows / OUT params / result sets</text>
</g>
<!-- db2&#45;&gt;service -->
<g id="edge36" class="edge">
<title>db2&#45;&gt;service</title>
<path fill="none" stroke="#475569" d="M1650.1,-436C1776.77,-436 2047,-436 2047,-436 2047,-436 2047,-518.71 2047,-518.71"/>
<polygon fill="#475569" stroke="#475569" points="2044.2,-518.71 2047,-526.71 2049.8,-518.71 2044.2,-518.71"/>
</g>
<!-- db3&#45;&gt;service -->
<g id="edge37" class="edge">
<title>db3&#45;&gt;service</title>
<path fill="none" stroke="#475569" d="M1649.07,-335C1782.66,-335 2082,-335 2082,-335 2082,-335 2082,-518.86 2082,-518.86"/>
<polygon fill="#475569" stroke="#475569" points="2079.2,-518.86 2082,-526.86 2084.8,-518.86 2079.2,-518.86"/>
</g>
<!-- config -->
<g id="node25" class="node">
<title>config</title>
<polygon fill="#fae8ff" stroke="#334155" points="481,-289 286,-289 286,-225 487,-225 487,-283 481,-289"/>
<polyline fill="none" stroke="#334155" points="481,-289 481,-283 "/>
<polyline fill="none" stroke="#334155" points="487,-283 481,-283 "/>
<text text-anchor="middle" x="386.5" y="-273.4" font-family="Arial" font-size="12.00">application.properties</text>
<text text-anchor="middle" x="386.5" y="-260.4" font-family="Arial" font-size="12.00">Db.connections</text>
<text text-anchor="middle" x="386.5" y="-247.4" font-family="Arial" font-size="12.00">pool size, async limits, batch limits</text>
<text text-anchor="middle" x="386.5" y="-234.4" font-family="Arial" font-size="12.00">demo&#45;mode, CORS</text>
</g>
<!-- config&#45;&gt;aliasfiles -->
<g id="edge21" class="edge">
<title>config&#45;&gt;aliasfiles</title>
<path fill="none" stroke="#475569" d="M487.12,-279.03C531.16,-279.03 573,-279.03 573,-279.03 573,-279.03 573,-825.9 573,-825.9"/>
<polygon fill="#475569" stroke="#475569" points="570.2,-825.9 573,-833.9 575.8,-825.9 570.2,-825.9"/>
</g>
<!-- config&#45;&gt;executor -->
<g id="edge22" class="edge">
<title>config&#45;&gt;executor</title>
<path fill="none" stroke="#475569" d="M487.37,-247.03C756.1,-247.03 1469,-247.03 1469,-247.03 1469,-247.03 1469,-75.55 1469,-75.55"/>
<polygon fill="#475569" stroke="#475569" points="1471.8,-75.55 1469,-67.55 1466.2,-75.55 1471.8,-75.55"/>
</g>
<!-- config&#45;&gt;pools -->
<g id="edge23" class="edge">
<title>config&#45;&gt;pools</title>
<path fill="none" stroke="#475569" d="M482,-224.85C482,-198.09 482,-164.33 482,-164.33 482,-164.33 574.33,-164.33 574.33,-164.33"/>
<polygon fill="#475569" stroke="#475569" points="574.33,-167.13 582.33,-164.33 574.33,-161.53 574.33,-167.13"/>
</g>
</g>
</svg>
